<svg id="Layer_1" data-name="Layer 1" xmlns="http://www.w3.org/2000/svg" viewBox="0 0 1125 528"><defs><style>.cls-1{fill:#fff;}</style></defs><path class="cls-1" d="M56.24,244.6c14.26,2.8,24.54,80.84,58.88,75.24,27.11-1.41,44.17-44.4,48.37-57.25,0-.23,0-.23.24-.47,1.16-3,4.2-13.78,8.41-13.78s5.84,5.37,8.64,13.78c4.21,12.85,21.5,55.61,48.6,57.25,34.35,5.84,44.4-72.9,58.65-75.71,5.61,0,12.85,6.55,11.22,18.93C290.6,329.88,193.63,447,172.14,447S55.07,337.13,45,262.59c-1.64-12.38,5.6-18,11.21-18"/><path class="cls-1" d="M171,115.15c58.88,0,108.65,40,123.84,94.63-15.42.94-26.64,5.14-33.65,12.85-7.48,8.18-16.59,27.34-27.1,57.48q-2.12,2.81-4.21,2.81c-2.1,0-3-1.17-4.21-2.81-.93-.93-10.28-25.93-20.32-46-6.78-11.68-11.92-18.22-16.59-21.49-5.84-4.44-11.22-6.78-16.36-6.78a26.43,26.43,0,0,0-16.12,4.91c-5.84,3.73-12.39,11.21-19.63,23.83-10.05,20.09-19.39,45.1-20.09,46-1.17,1.64-1.87,2.8-4,2.8q-2.1,0-4.2-2.8c-10.52-30.14-19.63-49.3-27.11-57.48-7-7.71-18.22-11.92-33.88-12.85,14.72-54.91,64.49-95.1,123.61-95.1"/><path class="cls-1" d="M128,418.91a82.57,82.57,0,0,0,6.77,8.17c-11.45,3-18.69,7.25-18.69,11.92,0,8.88,25.23,16.12,56.08,16.12,31.07,0,56.08-7.24,56.08-16.12,0-5.14-7.95-9.58-20.57-12.38,3.51-3,6.31-5.85,8.41-7.95,15.19,4.91,25,12.15,25,20.33,0,14.49-30.85,26.4-68.93,26.4s-68.93-11.68-68.93-26.17c0-8.17,9.58-15.42,24.77-20.32"/><path class="cls-1" d="M710.25,368.9a47.37,47.37,0,0,0-7.94.71,43.9,43.9,0,0,0-7,1.63l1.17-3.74V351.38c0-4.91-2.57-7.48-7.48-7.48a8.09,8.09,0,0,0-5.61,1.87,7.7,7.7,0,0,0-1.87,5.61v79.21a7.7,7.7,0,0,0,1.87,5.61c1.4,1.4,3.27,1.87,5.84,1.87a7.48,7.48,0,0,0,5.38-1.87,8.56,8.56,0,0,0,1.86-5.61v-45.1a19.82,19.82,0,0,0,2.34-.46c1.17-.24,2.57-.47,4.21-.94a43.35,43.35,0,0,1,6.07-.47,13.84,13.84,0,0,1,6.31,1.41,9.62,9.62,0,0,1,4.44,4.2,10,10,0,0,1,1.64,5.84v36a7.69,7.69,0,0,0,1.86,5.6c1.17,1.41,3,1.87,5.61,1.87a7.7,7.7,0,0,0,5.61-1.87c1.4-1.4,1.87-3.27,1.87-5.6V394.61a28.11,28.11,0,0,0-3.27-13.32,25.64,25.64,0,0,0-9.35-9.35,31.24,31.24,0,0,0-13.55-3m-93.93,26.41v18.22a24.05,24.05,0,0,0,3.51,12.85,26.12,26.12,0,0,0,9.58,9.35,28.32,28.32,0,0,0,14,3.5,35.76,35.76,0,0,0,11-1.4,29.94,29.94,0,0,0,7.71-4,6.65,6.65,0,0,0,2.8-5.61,7.51,7.51,0,0,0-1.87-4.9,5.24,5.24,0,0,0-4-2.11h-2.34a4.47,4.47,0,0,0-1.87.47,4,4,0,0,1-1.16.24,27.5,27.5,0,0,1-4.68,1.86,22.1,22.1,0,0,1-5.84.7,12.84,12.84,0,0,1-6.07-1.4,10.85,10.85,0,0,1-4.44-4.2,10.54,10.54,0,0,1-1.64-5.84V395.54a9.55,9.55,0,0,1,1.64-5.84,12,12,0,0,1,4.44-4,13.56,13.56,0,0,1,6.07-1.41A20.85,20.85,0,0,1,649,385a39.21,39.21,0,0,1,4.91,1.63,3.37,3.37,0,0,1,1.4.47c.47.23,1.17.23,1.64.47a7.73,7.73,0,0,0,2.33,0,5.21,5.21,0,0,0,4-2.11,7.56,7.56,0,0,0,1.87-4.9,7.13,7.13,0,0,0-2.81-5.61,32.07,32.07,0,0,0-32.71-2.1,25.08,25.08,0,0,0-9.81,9.34,25.53,25.53,0,0,0-3.51,13.09M599,385.26c5.14,0,7.48-2.34,7.48-7.48a6.69,6.69,0,0,0-1.17-4,7.32,7.32,0,0,0-3.27-2.57,26.76,26.76,0,0,0-5.38-1.17,58.19,58.19,0,0,0-6.54-.46,36.79,36.79,0,0,0-11,1.63,37.26,37.26,0,0,0-9.81,4.21,9.86,9.86,0,0,0-2.81,2.57,5.57,5.57,0,0,0-1.17,3.27v50a7.7,7.7,0,0,0,1.87,5.61c1.4,1.4,3.27,1.87,5.84,1.87a7.48,7.48,0,0,0,5.38-1.87,8.51,8.51,0,0,0,1.87-5.61V387.83a13.77,13.77,0,0,1,4.44-2.57,14.49,14.49,0,0,1,5.37-.94,56.78,56.78,0,0,1,8.88.94m-79.68,41.83c-3.27,0-5.84-.71-7.71-2.34s-2.57-3.74-2.57-6.54V418c0-5.61,3.74-8.18,11-8.18A54.77,54.77,0,0,1,532,411.2v14a44.46,44.46,0,0,1-12.62,1.88m2.34-57.95a43.71,43.71,0,0,0-9.81.93,42.89,42.89,0,0,0-7.71,2.34,6.88,6.88,0,0,0-3.74,2.8,7.93,7.93,0,0,0-.94,4.21,5.77,5.77,0,0,0,.94,3.27,6.17,6.17,0,0,0,2.33,2.57,4.72,4.72,0,0,0,3,.94,25.41,25.41,0,0,0,3-.47c-.24,0,.23,0,1.4-.24a32.84,32.84,0,0,1,10.52-1.63c3.5,0,6.3.93,8.17,2.8,2.11,1.87,3,4.68,3,8.41v4a36.52,36.52,0,0,0-6.54-1.41,68.42,68.42,0,0,0-7.48-.46c-7.24,0-13.08,1.87-17.29,5.37-4.44,3.51-6.54,9.11-6.54,16.36v.7a18.15,18.15,0,0,0,3,10.75,18.59,18.59,0,0,0,8.17,7,29,29,0,0,0,12.15,2.33,73.86,73.86,0,0,0,12.85-.93,38.77,38.77,0,0,0,10.28-2.57,17,17,0,0,0,4.21-2.11,5.92,5.92,0,0,0,1.87-2.33,14.88,14.88,0,0,0,.47-3.74V394.14a29.47,29.47,0,0,0-2.81-13.32,21.06,21.06,0,0,0-8.64-8.88,32.63,32.63,0,0,0-14-2.8M456,382.46a12.35,12.35,0,0,1,6.54,1.63,12.21,12.21,0,0,1,4.68,4.44,11.83,11.83,0,0,1,1.63,6.54v3h-25.7v-2.8a12.4,12.4,0,0,1,1.64-6.55,12.27,12.27,0,0,1,4.67-4.44,13.26,13.26,0,0,1,6.54-1.86m0-13.79a29.64,29.64,0,0,0-14.49,3.5,25.78,25.78,0,0,0-13.31,22.9V414a24.46,24.46,0,0,0,3.5,12.62,26.47,26.47,0,0,0,10,9.58,29.59,29.59,0,0,0,14.49,3.5,33,33,0,0,0,11-1.63,28.51,28.51,0,0,0,8.41-3.74,5.74,5.74,0,0,0,2.1-2.57,7.46,7.46,0,0,0,.7-3.27,8.15,8.15,0,0,0-1.87-5.14,7.07,7.07,0,0,0-5.14-2.34,3.48,3.48,0,0,0-1.63.23,11.58,11.58,0,0,1-1.64.71,12.17,12.17,0,0,1-1.63.7,26.64,26.64,0,0,1-10.28,2.56,14.32,14.32,0,0,1-7-1.86,11.85,11.85,0,0,1-4.68-4.91,12.7,12.7,0,0,1-1.63-6.31v-2.34h34.11a6.53,6.53,0,0,0,5.14-2.1,7.69,7.69,0,0,0,1.87-5.14v-7.24a27.09,27.09,0,0,0-3.5-13.32,26,26,0,0,0-10.05-10.05A32.29,32.29,0,0,0,456,368.67M390.84,410l1.4.47c2.57.93,4.44,1.86,5.84,2.33a10.36,10.36,0,0,1,3,2.34,5.73,5.73,0,0,1,1.17,3.5,5.58,5.58,0,0,1-2.1,4.68,8.24,8.24,0,0,1-5.38,1.63,22.16,22.16,0,0,1-5.84-.7c-1.63-.47-3.27-.93-5.14-1.63-.23,0-.7-.24-1.63-.47l-2.81-.7a11.65,11.65,0,0,0-2.57-.47,6.75,6.75,0,0,0-4.91,2.1,6.88,6.88,0,0,0-2.1,5.14c0,3.27,1.87,5.61,5.84,7.25a46.12,46.12,0,0,0,18.7,4.2,28.58,28.58,0,0,0,11.91-2.57,19.87,19.87,0,0,0,8.41-7.48,21.19,21.19,0,0,0,3-11.68,17.55,17.55,0,0,0-2.1-9.11,18.87,18.87,0,0,0-6.08-6.08,59.3,59.3,0,0,0-10.74-4.9c-3-1.17-5.15-2.11-6.78-2.81a7.56,7.56,0,0,1-3.27-2.57,4.69,4.69,0,0,1-.94-3,5.14,5.14,0,0,1,1.87-4.21,8.62,8.62,0,0,1,4.91-1.4,29.73,29.73,0,0,1,4.91.46,34.44,34.44,0,0,1,4.9,1.41,9.79,9.79,0,0,1,2.34.7,9.13,9.13,0,0,0,3.27.7,6.73,6.73,0,0,0,4.91-2.1,6.53,6.53,0,0,0,1.87-4.91,8.62,8.62,0,0,0-1.17-4,8.24,8.24,0,0,0-3.27-3,40.81,40.81,0,0,0-8.41-3,38,38,0,0,0-9.35-1.17,26.23,26.23,0,0,0-11.22,2.34,20.53,20.53,0,0,0-7.94,6.78,19,19,0,0,0-3,10.28c0,4.44.94,8.18,2.57,10.75a20.22,20.22,0,0,0,6.31,6.3,52.54,52.54,0,0,0,9.58,4.68"/><path class="cls-1" d="M589,288.52a79.93,79.93,0,0,0,23.13-3.27v-25.7a106.17,106.17,0,0,0-22-2.57c-13.55,0-20.33,5.14-20.33,15.19v.23a15.52,15.52,0,0,0,4.91,11.92c3.27,2.8,7.94,4.2,14.25,4.2m4-106.31c10,0,18.7,1.87,25.71,5.84a38.32,38.32,0,0,1,15.89,16.36c3.73,7,5.37,15.19,5.37,24.53v61.92c0,3-.23,5.38-.94,7a9.48,9.48,0,0,1-3.26,4.44,37.83,37.83,0,0,1-7.72,4c-5.14,2.11-11.44,3.51-18.92,4.68a160.91,160.91,0,0,1-24.3,1.63c-8.65,0-16.36-1.4-22.9-4.44a36.64,36.64,0,0,1-15.42-13.08c-3.74-5.61-5.38-12.39-5.38-20.1V274c0-13.55,4-23.6,12.15-30.14,8.18-6.78,18.93-10.05,32.48-10.05a81.86,81.86,0,0,1,13.79.93c4,.7,8.18,1.41,12.38,2.58v-7c0-7-1.87-12.15-5.61-15.65s-8.88-5.37-15.42-5.37a61.56,61.56,0,0,0-19.63,3.27,14.54,14.54,0,0,0-2.8.7,34.44,34.44,0,0,1-5.84.7,10.69,10.69,0,0,1-5.61-1.87,20.89,20.89,0,0,1-4.2-4.91,14.68,14.68,0,0,1-1.64-6.07,15.64,15.64,0,0,1,1.87-7.71,14.75,14.75,0,0,1,6.78-5.38,70.44,70.44,0,0,1,14.25-4.2A105.12,105.12,0,0,1,593,182.21m-81.78,1.4a17.18,17.18,0,0,1,11,3.51c3,2.34,4.43,5.61,4.43,9.81a20.68,20.68,0,0,1-.7,5.14l-28.27,96c-1.4,4.44-3.5,7.72-6.54,10a17.34,17.34,0,0,1-10.28,3.27,18,18,0,0,1-10.52-3c-3-1.87-4.9-5.14-6.07-9.12L444.35,224l-19.86,75.23a15.64,15.64,0,0,1-5.84,9.12,18.37,18.37,0,0,1-20.57-.24c-3-2.33-5.14-5.61-6.54-10l-28.27-96a20.68,20.68,0,0,1-.7-5.14c0-4.2,1.4-7.47,4.44-9.81a16.93,16.93,0,0,1,10.75-3.51c6.07,0,10,3.51,11.91,10.28l21,78.75,19.16-78.75a14.24,14.24,0,0,1,5.37-8.64,16.33,16.33,0,0,1,9.35-2.8,18.06,18.06,0,0,1,9.35,2.57c2.8,1.86,4.44,4.67,5.37,8.87l19.16,78.28,21-78.74c1.64-6.55,5.61-9.82,11.68-9.82m193.71,71.27-11,7.71v34.58a14.26,14.26,0,0,1-28.51,0V150.43a14.26,14.26,0,0,1,28.51,0v77.34L745.3,192a14.26,14.26,0,0,1,16.35,23.37l-33.41,23.13,42.29,51.88a14.28,14.28,0,0,1-22.19,18Zm326.18,33.64a79.88,79.88,0,0,0,23.13-3.27v-25.7a106.09,106.09,0,0,0-22-2.57c-13.55,0-20.33,5.14-20.33,15.19v.23a15.52,15.52,0,0,0,4.91,11.92c3.27,2.8,8.18,4.2,14.25,4.2m4-106.31c10,0,18.7,1.87,25.71,5.84a38.32,38.32,0,0,1,15.89,16.36c3.74,7,5.37,15.19,5.37,24.53v61.92a18.76,18.76,0,0,1-.93,7,8,8,0,0,1-3.28,4.21,37.43,37.43,0,0,1-7.71,4,92.92,92.92,0,0,1-18.92,4.67,157.79,157.79,0,0,1-24.07,1.64c-8.64,0-16.12-1.4-22.66-4.44s-11.69-7.24-15.19-12.85c-3.74-5.61-5.37-12.15-5.37-19.86v-.94c0-13.32,4-23.36,12.14-29.91,8-6.54,18.7-10,32.25-10a81.66,81.66,0,0,1,13.78.93,124.12,124.12,0,0,1,12.15,2.57v-7.24c0-7-1.86-12.15-5.6-15.66s-8.88-5.37-15.42-5.37a61.84,61.84,0,0,0-19.63,3.27,15.38,15.38,0,0,0-2.8.7,34.66,34.66,0,0,1-5.84.7,10.69,10.69,0,0,1-5.62-1.87,21.31,21.31,0,0,1-4.2-4.9,14.76,14.76,0,0,1-1.64-6.08,15.64,15.64,0,0,1,1.87-7.71,14.85,14.85,0,0,1,6.78-5.37,69.94,69.94,0,0,1,14.25-4.21,84.74,84.74,0,0,1,18.69-1.87m-87.62-45.33c5.84,1.64,8.65,5.84,8.65,13.09V296c0,4.44-1.17,7.95-3.51,10.28s-5.84,3.51-10.28,3.51-7.94-1.17-10.51-3.51c-2.34-2.33-3.51-5.84-3.51-10.28V164h-5.6c-4.44,0-7.95-1.17-10.29-3.51s-3.5-5.84-3.5-10.28c0-9.35,4.67-13.79,13.79-13.79h19.62a12.85,12.85,0,0,1,5.14.47M835.49,288.52a79.93,79.93,0,0,0,23.13-3.27v-25.7a106.17,106.17,0,0,0-22-2.57c-13.55,0-20.33,5.14-20.33,15.19v.23a15.52,15.52,0,0,0,4.91,11.92c3.27,2.8,7.94,4.2,14.25,4.2m4-106.31c10,0,18.7,1.87,25.71,5.84a38.38,38.38,0,0,1,15.89,16.36c3.73,7,5.37,15.19,5.37,24.53v61.92a18.73,18.73,0,0,1-.94,7,9.44,9.44,0,0,1-3.27,4.44,37.43,37.43,0,0,1-7.71,4c-5.14,2.11-11.45,3.51-18.93,4.68a160.74,160.74,0,0,1-24.3,1.63c-8.64,0-16.35-1.4-22.89-4.44A36.64,36.64,0,0,1,793,295.07c-3.74-5.61-5.38-12.39-5.38-20.1V274c0-13.55,4-23.6,12.15-30.14,8.18-6.78,18.93-10.05,32.48-10.05a81.78,81.78,0,0,1,13.79.93c4,.7,8.18,1.41,12.38,2.58v-7c0-7-1.87-12.15-5.61-15.65s-8.88-5.37-15.42-5.37a61.56,61.56,0,0,0-19.63,3.27,14.54,14.54,0,0,0-2.8.7,34.44,34.44,0,0,1-5.84.7,10.69,10.69,0,0,1-5.61-1.87,21.12,21.12,0,0,1-4.2-4.91,14.68,14.68,0,0,1-1.64-6.07,15.64,15.64,0,0,1,1.87-7.71,14.75,14.75,0,0,1,6.78-5.38,70.44,70.44,0,0,1,14.25-4.2,103.43,103.43,0,0,1,18.92-1.64"/></svg>